<svg width="160" height="160" fill="none" xmlns="http://www.w3.org/2000/svg"><path d="M35.75 119.903a.353.353 0 0 1-.355-.355v-5.963a.356.356 0 0 1 .605-.251.356.356 0 0 1 .104.251v5.963a.353.353 0 0 1-.355.355ZM51.332 68.97c-8.235 2.928-9.974-12.707-2.36-10.17 7.613 2.538 4.383-11.127 4.383-11.127-8.66-29.584 17.942-35.228 17.942-35.228s2.822-1.74 6.726 3.656c0 0 8.288-3.567 14.056 7.081 5.768 10.648-.87 27.189 2.147 32.033 3.266 5.2 6.389-.443 8.324 4.295 1.633 3.993-6.336 8.519-8.324 8.572l-42.894.887Z" fill="#212529"/><path d="M49.326 69.697c-2.076 0-3.372-1.243-4.046-2.13-1.775-2.36-2.059-6.034-.621-8.022.958-1.33 2.52-1.721 4.419-1.082 1.42.461 2.52.372 3.265-.32 2.485-2.272.728-10.08.657-10.382-2.751-9.459-2.236-17.48 1.561-23.834 5.413-9.051 15.778-11.624 16.612-11.82.443-.23 3.265-1.42 6.974 3.567 1.546-.5 3.188-.628 4.792-.372 2.644.408 6.407 2.076 9.46 7.702 3.407 6.3 2.537 14.641 1.845 21.332-.497 4.703-.905 8.767.284 10.684 1.562 2.502 3.035 2.325 4.437 2.147 1.402-.177 2.875-.337 3.922 2.218.461 1.136.266 2.379-.586 3.692-1.863 2.857-6.478 5.324-8.057 5.36l-42.842.887a6.281 6.281 0 0 1-2.076.373ZM47.409 58.87a2.502 2.502 0 0 0-2.165 1.082c-1.242 1.74-.958 5.094.604 7.188.763.994 2.467 2.538 5.377 1.49h.106l42.895-.887c1.242-.035 5.661-2.236 7.472-5.022.727-1.118.905-2.13.532-3.053-.834-2.04-1.828-1.934-3.177-1.774-1.348.16-3.336.39-5.129-2.485-1.33-2.112-.887-6.282-.39-11.127.692-6.602 1.544-14.82-1.757-20.924-2.307-4.242-5.395-6.78-8.945-7.347-2.661-.409-4.65.426-4.667.443l-.266.107-.16-.23c-3.674-5.077-6.23-3.586-6.247-3.568l-.053.035h-.053c-.107.036-10.773 2.396-16.221 11.518-3.692 6.176-4.188 14.02-1.473 23.284.089.338 1.97 8.483-.87 11.075-.94.87-2.29 1.011-3.975.461a4.42 4.42 0 0 0-1.438-.266Z" fill="#212529"/><path d="M88.316 32.677h-.106c-9.708-2.769-16.7-11.11-16.771-11.199a.358.358 0 1 1 .55-.461c.071.089 6.921 8.27 16.416 10.968a.355.355 0 0 1 .123.626.337.337 0 0 1-.212.066Z" fill="#212529"/><path d="M84.306 43.643h-.089a.354.354 0 0 1-.32-.39.338.338 0 0 1 .374-.32c.124 0 3.088.178 3.62-4.667.302-2.662-.444-3.461-1.154-4.224-.71-.763-1.384-1.473-1.189-3.479a.356.356 0 1 1 .71.071c-.16 1.686.373 2.254.994 2.929.621.674 1.668 1.792 1.349 4.791-.568 5.04-3.71 5.289-4.295 5.289ZM80.046 33.12h-.053l-4.028-.354a.461.461 0 0 1-.362-.662.426.426 0 0 1 .433-.226l4.046.355a.445.445 0 0 1 .408.48.48.48 0 0 1-.444.408Z" fill="#212529"/><path d="M95.948 119.548c-1.047-1.828-1.633-2.573-1.402-4.667.337-3.213.851-8.342 1.1-13.169 2.431 4.827 8.252 13.044 18.066 7.898 2.006-1.047-.23-33.116-27.241-43.73l-2.964 4.207a11.605 11.605 0 0 1-1.668 2.059C70.587 82.794 61.607 65.88 61.607 65.88c-27.561 8.252-25.112 31.2-27.632 43.729-1.314 6.548 6.921 3.833 14.854 3.265 3.425-.231 4.046-5.608 4.1-9.832a.232.232 0 0 1 .061-.166.232.232 0 0 1 .4.148l.94 9.477a15.035 15.035 0 0 1-1.455 8.058" fill="#ADB5BD"/><path d="M61.607 65.88s5.182 2.52 7.667-12.387l7.79-.515s.48 14.393 9.407 12.903c0 0-11.252 22.645-24.864 0ZM92.611 31.825a.354.354 0 0 1-.355-.32c-1.1-10.63-9.974-13.345-10.062-13.363a.355.355 0 0 1-.231-.444.337.337 0 0 1 .426-.248c.106.035 2.396.727 4.862 2.786 2.467 2.059 5.112 5.395 5.715 11.198a.356.356 0 0 1-.32.39h-.035ZM92.753 39.563a.355.355 0 0 1-.355-.355v-4.88a.355.355 0 0 1 .71 0v4.88a.355.355 0 0 1-.355.355ZM55.2 29.871h-.089a.372.372 0 0 1-.248-.444c1.739-5.98 6.158-9.228 6.336-9.37a.352.352 0 0 1 .396-.008c.04.025.074.058.1.097a.357.357 0 0 1-.07.497c-.054.017-4.42 3.247-6.088 8.98a.32.32 0 0 1-.337.248ZM54.384 35.746a.373.373 0 0 1-.355-.284 6.585 6.585 0 0 1 0-3 .356.356 0 0 1 .426-.265.336.336 0 0 1 .266.426 6.214 6.214 0 0 0 0 2.68.337.337 0 0 1-.266.425l-.071.018ZM123.811 86.254c5.004 34.518-8.661 36.825-17.197 30.205-4.171-3.23-7.046-8.163-7.791-9.956a.58.58 0 0 1 .143-.676.57.57 0 0 1 .212-.122c1.739-.586 6.797-2.467 8.696-5.111" fill="#F8F9FA"/><path d="M114.245 119.778c-2.538 0-5.271-1.029-7.862-3.035-4.419-3.442-7.259-8.571-7.898-10.098a1.03 1.03 0 0 1 .018-.763.971.971 0 0 1 .55-.514c1.544-.515 6.673-2.396 8.519-4.987a.353.353 0 0 1 .497-.071.356.356 0 0 1 .088.497c-1.916 2.679-6.85 4.561-8.873 5.235a.357.357 0 0 0-.142.142.3.3 0 0 0 0 .177c.78 1.864 3.691 6.727 7.684 9.815 3.993 3.088 8.146 3.709 11.358 1.845 3.213-1.863 8.608-8.749 5.271-31.731a.336.336 0 0 1 .302-.39.351.351 0 0 1 .268.064.353.353 0 0 1 .14.237c1.349 9.335 1.438 16.93.231 22.556-1.047 4.898-3.017 8.217-5.857 9.885a8.702 8.702 0 0 1-4.294 1.136Z" fill="#212529"/><path d="M137.547 119.424H22.475v.71h115.072v-.71Z" fill="#212529"/><path d="M123.171 87.372s5.733-12.228 0-12.618c0 0 1.899-5.821-3.265-5.076 0 0-.053-8.234-8.164-6.194 0 0-.816 4.508-4.88 1.9 0 0-3.621-5.502-4.455-.267-.159.959 4.473 4.739 5.289 6.247 2.165 4.029 3.674 11.731 3.159 19.77-.213 3.443-.497 7.81-.426 11.465l12.742-15.227Z" fill="#F8F9FA"/><path d="M112.896 63.023c2.893-1.26 1.438 5.785-1.597 8.075a1.335 1.335 0 0 1-1.118.23c-.728-.195-1.935-1.58-1.172-3.709" fill="#F8F9FA"/><path d="M110.5 71.72a1.508 1.508 0 0 1-.408-.053c-.479-.125-.994-.586-1.313-1.19-.32-.603-.497-1.898-.107-2.963a.378.378 0 0 1 .055-.146.358.358 0 0 1 .631.074.368.368 0 0 1-.029.302c-.39 1.119-.177 1.935.071 2.414.249.48.621.763.87.817a.975.975 0 0 0 .816-.16c2.272-1.722 3.549-6.123 2.822-7.347-.071-.107-.231-.39-.87-.125a.354.354 0 0 1-.427-.442.356.356 0 0 1 .143-.197c1.101-.479 1.615.125 1.775.409.941 1.615-.55 6.406-3.017 8.27-.291.22-.646.34-1.012.337Z" fill="#212529"/><path d="M117.049 66.378c4.259-1.544.639 8.217-3.301 9.282 0 0-1.988.213-1.934-2.094" fill="#F8F9FA"/><path d="M113.624 76.014a2.184 2.184 0 0 1-1.491-.532c-.462-.426-.692-1.083-.675-1.917a.358.358 0 0 1 .355-.355h.018a.371.371 0 0 1 .337.373c-.017.62.142 1.082.444 1.366.297.25.678.376 1.065.355 2.059-.586 4.153-3.833 4.774-6.424.248-1.047.195-1.864-.142-2.166-.337-.301-.781-.141-1.154 0a.356.356 0 1 1-.23-.674c.798-.284 1.419-.23 1.863.142.444.373.674 1.49.355 2.857-.586 2.485-2.751 6.265-5.306 6.957h-.213v.018Z" fill="#212529"/><path d="M121.006 70.55c4.028-.782 1.242 8.784-4.774 9.228 0 0-2.662.088-2.361-2.343" fill="#F8F9FA"/><path d="M116.215 80.131c-.266 0-1.473-.053-2.183-.834-.444-.48-.604-1.118-.515-1.899a.36.36 0 0 1 .391-.32.39.39 0 0 1 .319.409c-.071.568.036 1.011.32 1.33.567.622 1.668.604 1.668.604 2.857-.213 4.88-2.626 5.75-4.632.656-1.526.763-2.963.266-3.602-.248-.302-.639-.39-1.171-.284a.354.354 0 0 1-.351-.554.374.374 0 0 1 .226-.156c.994-.195 1.562.195 1.846.55.692.852.621 2.52-.16 4.33-.993 2.29-3.194 4.827-6.371 5.058h-.035Z" fill="#212529"/><path d="m111.228 64.94-9.016-11.962-3.638 3.763 10.187 10.648a.693.693 0 0 0 .657.178c.479-.142 1.313-.568 1.899-1.97a.669.669 0 0 0 .041-.34.669.669 0 0 0-.13-.317Z" fill="#F8F9FA"/><path d="M109.239 67.939a.97.97 0 0 1-.727-.32L98.094 56.74l4.153-4.312 9.264 12.299a1.013 1.013 0 0 1 .142.993c-.657 1.58-1.633 2.041-2.147 2.183a.696.696 0 0 1-.267.036ZM99.07 56.74l9.956 10.4a.345.345 0 0 0 .284.089c.409-.107 1.136-.48 1.686-1.775a.304.304 0 0 0-.053-.302l-8.767-11.642-3.106 3.23Z" fill="#212529"/><path d="M59.14 35.09c-1.898 1.224-2.502 1.951-2.254 4.205.16 1.313 1.19 3.603 2.254 4.384 1.065.78 1.846.763 2.272 1.171 1.012.976 1.065 2.023 1.19 3.088.319 2.662 2.785 4.33 5.093 5.715 3.673 2.2 8.802 1.597 11.872-1.385 1.74-1.686 3.248-3.744 3.887-6.087.78-2.893 3.691-5.111 3.762-5.218.781-1.366 1.136-2.449.959-4.028-.231-2.059-3.142-3.834-4.81-5.058-3.869-2.875-6.832-5.892-10.453-9.46a1.296 1.296 0 0 0-1.952.178c-2.573 3.532-2.822 6.407-9.548 10.311" fill="#F8F9FA"/><path d="M72.539 55.25h-.106c-5.68-.052-8.466-3.495-9.815-6.37a17.784 17.784 0 0 1-1.561-6.265.337.337 0 0 1 .337-.355h.018a.337.337 0 0 1 .355.337 17.445 17.445 0 0 0 1.508 5.999c1.828 3.904 4.916 5.91 9.158 5.945h.124c4.507 0 7.79-2.343 9.743-6.975 1.473-3.514 1.58-7.08 1.597-7.116a.355.355 0 1 1 .692.017 22.521 22.521 0 0 1-1.632 7.383c-2.041 4.845-5.644 7.4-10.418 7.4Z" fill="#212529"/><path d="M61.181 44.851a4.313 4.313 0 0 1-2.626-.905c-1.1-.887-1.775-2.307-1.988-4.224-.337-3.034.55-3.709 1.349-4.312.799-.603 1.065-.816.905-2.467a.373.373 0 0 1 .32-.39.354.354 0 0 1 .39.32c.195 2.04-.55 2.608-1.19 3.105-.638.497-1.348 1.03-1.064 3.656.532 4.845 3.958 4.525 4.1 4.508a.336.336 0 0 1 .39.301.354.354 0 0 1-.32.39l-.266.018ZM66.346 39.42c.431 0 .78-.533.78-1.19 0-.657-.349-1.189-.78-1.189-.431 0-.781.532-.781 1.19 0 .656.35 1.188.78 1.188ZM64.376 35.834a.462.462 0 0 1-.44-.513.444.444 0 0 1 .333-.374l3.922-1.03a.427.427 0 0 1 .532.302.443.443 0 0 1-.301.55L64.5 35.818l-.124.017ZM70.782 44.851h-.017c-.781-.07-1.278-.337-1.456-.816-.39-1.012.941-2.45 1.225-2.715a.355.355 0 0 1 .497-.018.373.373 0 0 1 0 .515c-.515.532-1.225 1.544-1.047 1.97.177.425.55.337.816.354a.339.339 0 0 1 .337.373.373.373 0 0 1-.355.337Z" fill="#212529"/><path d="M91.99 58.658c10.184 0 18.439-8.256 18.439-18.44 0-10.183-8.255-18.439-18.439-18.439s-18.44 8.256-18.44 18.44c0 10.183 8.256 18.439 18.44 18.439Z" fill="#F8F9FA"/><path d="M91.99 59.03c-10.364 0-18.794-8.448-18.794-18.812a18.794 18.794 0 0 1 37.588 0c0 10.364-8.43 18.812-18.794 18.812Zm0-36.896a18.102 18.102 0 0 0-18.084 18.084c0 9.974 8.11 18.102 18.084 18.102s18.084-8.128 18.084-18.102A18.1 18.1 0 0 0 91.99 22.134Z" fill="#212529"/><path d="M91.99 55.481c8.243 0 14.926-6.682 14.926-14.925s-6.683-14.925-14.926-14.925-14.925 6.682-14.925 14.925 6.682 14.925 14.925 14.925Z" fill="#F8F9FA"/><path d="M91.99 55.836a15.28 15.28 0 1 1 15.28-15.28 15.298 15.298 0 0 1-15.28 15.28Zm0-29.85a14.57 14.57 0 1 0 14.57 14.57 14.587 14.587 0 0 0-14.57-14.57Z" fill="#212529"/><path d="M80.525 39.456c.872 0 1.58-1.08 1.58-2.414 0-1.333-.708-2.413-1.58-2.413-.873 0-1.58 1.08-1.58 2.413 0 1.334.708 2.414 1.58 2.414Z" fill="#212529"/><path d="M85.14 53.831s10.293-11.89 3.495-27.827L85.14 53.83Z" fill="#F8F9FA"/><path d="M85.14 54.185a.355.355 0 0 1-.266-.586c.017-.035 2.555-2.999 4.24-7.861 1.545-4.455 2.663-11.483-.798-19.593a.355.355 0 0 1 .177-.461.355.355 0 0 1 .48.177c3.549 8.341 2.395 15.564.798 20.143-1.721 4.97-4.259 7.933-4.365 8.057a.375.375 0 0 1-.267.124Z" fill="#212529"/><path d="M48.829 112.875s.266 5.413 0 6.904v-6.904Z" fill="#F8F9FA"/><path d="M48.83 120.133h-.054a.371.371 0 0 1-.284-.426c.249-1.438 0-6.762-.017-6.815a.339.339 0 0 1 .337-.355.332.332 0 0 1 .262.085.343.343 0 0 1 .11.252c.018.213.267 5.449 0 6.957a.353.353 0 0 1-.354.302ZM69.522 51.453c-.692 0-1.26-.692-1.26-1.526 0-.834.568-1.544 1.26-1.544.692 0 1.26.692 1.26 1.544 0 .852-.568 1.526-1.26 1.526Zm0-2.36c-.302 0-.55.39-.55.834 0 .444.249.816.55.816.302 0 .55-.373.55-.816 0-.444-.248-.834-.55-.834ZM118.362 83.966a6.9 6.9 0 0 1-.852-.071c-1.544-.23-2.52-.657-2.91-1.26a.918.918 0 0 1-.142-.763l.674.195a.33.33 0 0 0 .021.124.34.34 0 0 0 .068.107c.178.248.71.674 2.378.905l.746.053c3.141 0 5.59-2.857 6.193-4.472a2.169 2.169 0 0 0-.514-2.307.333.333 0 0 1-.018-.497.353.353 0 0 1 .497-.036c.053.054 1.384 1.278.692 3.088s-3.319 4.934-6.833 4.934Z" fill="#212529"/><path d="M123.42 86.662a.815.815 0 0 1-.408-.089.359.359 0 0 1-.18-.206.35.35 0 0 1 .229-.45.338.338 0 0 1 .271.035.99.99 0 0 0 .514-.088c.799-.338 1.722-1.172 1.81-1.438a.304.304 0 0 0-.053-.302l-2.129-3.105a.333.333 0 0 1-.008-.384.35.35 0 0 1 .096-.096.36.36 0 0 1 .267-.059.347.347 0 0 1 .23.148l2.13 3.088c.092.136.153.292.178.454.024.163.012.33-.036.487-.195.55-1.331 1.508-2.219 1.863a1.792 1.792 0 0 1-.692.142Z" fill="#212529"/><path d="M123.172 86.61a.373.373 0 0 1-.284-.142l-2.183-3.177a.353.353 0 0 1-.008-.396.357.357 0 0 1 .593-.012l2.183 3.177a.35.35 0 0 1-.106.497.357.357 0 0 1-.195.053Z" fill="#212529"/><path d="M92.097 128.421c4.273 0 7.737-3.425 7.737-7.649s-3.464-7.649-7.737-7.649c-4.274 0-7.738 3.425-7.738 7.649s3.464 7.649 7.738 7.649Z" fill="#F8F9FA"/><path d="M92.185 128.776h-.567l-3.266-.391 2.627-.319v-.089l.301.036a7.263 7.263 0 0 0 6.354-7.241c0-3.798-2.485-6.762-6.034-7.188l-2.91-.337 2.91-.355.142-.053c.136-.05.28-.074.426-.071a7.994 7.994 0 0 1 5.989 2.674 7.998 7.998 0 0 1 1.979 6.253 8.037 8.037 0 0 1-7.95 7.081Zm2.574-14.819c2.2 1.366 3.585 3.851 3.585 6.815a8.037 8.037 0 0 1-4.047 6.992 7.502 7.502 0 0 0 2.432-1.295 7.192 7.192 0 0 0 2.697-4.863 7.24 7.24 0 0 0-1.81-5.697 7.473 7.473 0 0 0-2.857-1.952Z" fill="#212529"/><path d="M91.724 128.742h-.426c-4.029 0-7.294-3.585-7.294-7.969 0-4.383 3.212-8.003 7.17-8.003.29 0 .58.017.87.053 3.584.497 6.3 3.904 6.3 7.95 0 4.047-2.716 7.472-6.3 7.951l-.32.018Zm-.55-15.263c-3.567 0-6.46 3.284-6.46 7.294 0 4.011 2.963 7.259 6.584 7.259h.266c.125.011.25.005.373-.018 3.248-.426 5.697-3.549 5.697-7.241 0-3.691-2.45-6.797-5.697-7.24a5.413 5.413 0 0 0-.763-.054Z" fill="#212529"/><path d="M91.173 126.647c-2.91 0-5.27-2.627-5.27-5.874 0-3.248 2.36-5.857 5.27-5.857l.64.036c2.626.354 4.613 2.857 4.613 5.821 0 2.963-1.987 5.466-4.614 5.821a3.907 3.907 0 0 1-.639.053Zm0-11.021c-2.52 0-4.56 2.307-4.56 5.147 0 2.839 2.04 5.164 4.56 5.164l.533-.036c2.289-.319 4.01-2.52 4.01-5.128 0-2.609-1.721-4.81-4.01-5.112a2.711 2.711 0 0 0-.533-.035ZM98.592 117.171h-1.597a.357.357 0 0 1-.355-.355.354.354 0 0 1 .355-.355h1.597a.353.353 0 0 1 .355.355.356.356 0 0 1-.355.355ZM99.213 118.979h-1.508a.353.353 0 0 1-.355-.355.356.356 0 0 1 .355-.354h1.508a.356.356 0 0 1 .356.354.352.352 0 0 1-.356.355ZM99.817 121.429h-1.828a.357.357 0 0 1-.355-.355.354.354 0 0 1 .355-.355h1.828a.355.355 0 1 1 0 .71ZM99.106 123.985h-1.615a.353.353 0 0 1-.355-.355.356.356 0 0 1 .355-.355h1.615a.357.357 0 0 1 .355.355.354.354 0 0 1-.355.355ZM97.491 126.612H95.93a.353.353 0 0 1-.355-.355.356.356 0 0 1 .355-.355h1.561a.358.358 0 0 1 .355.355.354.354 0 0 1-.355.355Z" fill="#212529"/><path d="M91.741 124.375a2.556 2.556 0 0 1-1.508-.461c-.852-.639-1.278-1.917-1.278-3.78.018-1.598.39-2.52 1.136-2.84 1.153-.497 2.627.834 2.786.976a.355.355 0 0 1 .018.497.327.327 0 0 1-.245.118.336.336 0 0 1-.252-.1c-.337-.302-1.402-1.1-2.023-.834-.621.266-.692.958-.71 2.183 0 1.632.32 2.715.994 3.194.674.479 1.721.302 2.413.089a.327.327 0 0 1 .273.017.34.34 0 0 1 .171.214.334.334 0 0 1-.017.273.343.343 0 0 1-.214.17 4.96 4.96 0 0 1-1.544.284Z" fill="#212529"/><path d="M63.435 108.278s-16.433 2.467-15.901 5.395c.532 2.928 1.686 4.845.124 8.075-.78 1.615-2.484 3.691-2.946 6.052-.461 2.36.55 5.146 2.822 7.027 4.561 3.78 4.437 6.726 25.61 0 0 0 7.524-1.916 4.294-8.163-3.23-6.247-4.685-3.354-1.775-11.767 0 0 1.331-3.478-2.857-2.91 0 0-3.337.142-4.33-1.438-.994-1.579-1.704-3.975-5.04-2.271Z" fill="#F8F9FA"/><path d="M53.035 124.446s2.769-6.691 4.845-7.277c2.077-.585 14.908-4.277 15.724-3.354.817.923-.355 7.046-2.076 7.401-1.722.355-13.524 4.046-12.707 4.969.816.923 13.044-2.307 14.198-1.615 1.153.692 4.223 4.508.851 8.536-3.372 4.029-19.096 6.886-20.48 5.733-1.384-1.154-7.17-7.578-6.708-9.531.461-1.952-.586-4.135 1.508-3.176 2.095.958 3.603.994 4.845-1.686Z" fill="#212529"/><path d="M55.573 139.389c-2.165 0-4.206-.337-5.324-1.402-4.241-4.011-7.578-7.17-5.27-11.997 2.164-4.543 3.354-6.655 3.371-6.691a.35.35 0 0 1 .089-.105.337.337 0 0 1 .39-.019.355.355 0 0 1 .142.479c-.017.018-1.189 2.13-3.354 6.638s.94 7.223 5.13 11.18c1.419 1.349 5.27 1.58 10.54.604 7.295-1.331 15.157-4.543 16.15-6.62 1.35-2.751-.585-5.306-2.147-7.347a17.944 17.944 0 0 1-1.189-1.686c-.692-1.189-.035-3.336.604-5.431.567-1.81 1.206-3.886.496-4.383-1.384-.994-9.831.887-13.895 1.792l-2.077.444c-3.602.763-6.886 6.939-6.921 6.992a.347.347 0 0 1-.076.134.348.348 0 0 1-.277.118.36.36 0 0 1-.333-.277.356.356 0 0 1 .065-.294c.142-.266 3.46-6.531 7.4-7.365l2.059-.444c6.495-1.455 12.955-2.768 14.464-1.686 1.118.799.461 2.928-.231 5.182-.568 1.846-1.207 3.94-.657 4.863a15.37 15.37 0 0 0 1.136 1.615c1.58 2.076 3.745 4.934 2.219 8.075-1.243 2.573-9.78 5.768-16.665 7.028-1.58.284-3.762.603-5.839.603Z" fill="#212529"/><path d="M49.752 122.494a.386.386 0 0 1-.337-.213c-.337-.852-3.319-8.288-.958-9.903 2.36-1.615 14.304-4.17 15.102-3.851a.358.358 0 0 1 .214.462.411.411 0 0 1-.444.213c-.816-.089-12.352 2.289-14.464 3.762-1.42.976-.018 6.052 1.207 9.033a.338.338 0 0 1-.178.462l-.142.035ZM59.956 107.942c-1.242 0-2.52-.302-3.283-1.296a.355.355 0 0 1 .071-.497.332.332 0 0 1 .264-.075.329.329 0 0 1 .233.146c1.526 1.988 6.034.426 6.07.408a.346.346 0 0 1 .138-.023.379.379 0 0 1 .137.032.361.361 0 0 1 .186.204.374.374 0 0 1-.213.462c-.124.035-1.828.639-3.603.639Z" fill="#212529"/><path d="M57.703 114.029a.357.357 0 0 1-.319-.537.35.35 0 0 1 .194-.155c1.793-.657 6.088-2.148 6.993-1.669h.053c.284-.124.639-1.047.816-1.845a.358.358 0 0 1 .152-.215.358.358 0 0 1 .257-.052.372.372 0 0 1 .284.426c-.071.32-.462 1.988-1.207 2.325a.726.726 0 0 1-.692-.018c-.48-.212-3.71.728-6.425 1.722l-.106.018ZM50.213 125.83a1.846 1.846 0 1 0 0-3.691 1.846 1.846 0 0 0 0 3.691ZM56.3 107a1.846 1.846 0 1 0 .001-3.691 1.846 1.846 0 0 0 0 3.691Z" fill="#212529"/><path d="M65.777 110.125a1.846 1.846 0 1 0 0-3.691 1.846 1.846 0 0 0 0 3.691Z" fill="#212529"/><path d="m62.53 142.212-.373-.426a3.98 3.98 0 0 1-.621-1.438c-.409-1.97.62-4.348 2.768-5.892 2.148-1.544 5.13-1.863 6.85-.586.3.226.563.495.781.799.116.147.211.308.284.479 1.083 2.077.071 5.023-2.413 6.851-2.485 1.828-5.626 1.863-7.276.213Z" fill="#F8F9FA"/><path d="M65.706 143.754c-1.33 0-2.555-.426-3.425-1.295a5.153 5.153 0 0 1-.408-.462 4.477 4.477 0 0 1-.639-1.348.425.425 0 0 1 .178-.462.43.43 0 0 1 .496-.018c1.651 1.083 4.224.817 6.265-.674 2.041-1.491 3.035-3.674 2.627-5.555l-.195-.905.763.55a3.978 3.978 0 0 1 1.171 1.402c1.171 2.254.071 5.395-2.538 7.294a7.417 7.417 0 0 1-4.295 1.473Zm-3.531-2.626c.089.142.177.302.284.444.096.137.203.268.32.39 1.56 1.544 4.49 1.437 6.814-.249 2.325-1.703 3.319-4.454 2.325-6.406-.089-.142-.16-.284-.266-.444l-.054-.053c-.017 1.881-1.135 3.904-2.999 5.253-1.863 1.349-4.56 1.863-6.424 1.065Z" fill="#212529"/><path d="M64.287 141.555a4.86 4.86 0 0 1-2.964-.922l-.107-.089-.035-.124c-.444-2.148.728-4.668 2.91-6.265 2.183-1.597 5.378-1.97 7.277-.568l.106.089v.124c.462 2.147-.71 4.667-2.892 6.265-1.332.976-2.876 1.49-4.295 1.49Zm-2.432-1.419c1.65 1.135 4.224.887 6.318-.639 1.935-1.402 2.982-3.567 2.662-5.413-1.65-1.136-4.223-.87-6.335.656-2.112 1.527-2.964 3.55-2.645 5.396Z" fill="#212529"/><path d="M71.297 139.23a.354.354 0 0 1-.32-.213l-.745-1.561a.363.363 0 0 1 .178-.48.363.363 0 0 1 .479.178l.728 1.562a.37.37 0 0 1-.178.479l-.142.035ZM69.54 140.739a.36.36 0 0 1-.301-.196l-.586-1.047a.347.347 0 0 1-.036-.279.355.355 0 0 1 .178-.218.375.375 0 0 1 .48.142l.585 1.065a.355.355 0 0 1-.142.479.304.304 0 0 1-.178.054ZM66.434 142.619a.341.341 0 0 1-.32-.196l-.656-1.26a.356.356 0 0 1 .433-.498c.09.03.164.094.206.179l.639 1.26a.355.355 0 0 1-.142.479l-.16.036ZM63.577 140.064c-.284 0-.78-.124-.958-.55-.178-.426.302-1.704 1.846-3.23 1.544-1.527 2.84-2.254 3.869-2.165a1.444 1.444 0 0 1 1.029.496.374.374 0 0 1-.089.497.351.351 0 0 1-.253.059.351.351 0 0 1-.226-.13.785.785 0 0 0-.55-.213c-.462-.035-1.49.196-3.283 1.953-1.793 1.757-1.722 2.395-1.686 2.449.035.053.248.124.301.124h.018a.373.373 0 0 1 .355.337.388.388 0 0 1-.355.373h-.018Z" fill="#212529"/><path d="M119.977 141.058a6.089 6.089 0 0 0-.035-.799 4.918 4.918 0 0 0-.71-2.112c-1.438-2.449-4.81-3.958-8.537-3.549-4.028.426-7.17 2.963-7.755 5.945a5.196 5.196 0 0 0-.053 1.579c.02.265.067.527.142.781.869 3.213 4.738 5.36 9.104 4.881 4.366-.479 7.684-3.39 7.844-6.726Z" fill="#F8F9FA"/><path d="M110.926 148.209c-3.975 0-7.401-2.112-8.235-5.218a5.76 5.76 0 0 1-.159-.834 5.336 5.336 0 0 1 .035-1.509.416.416 0 0 1 .114-.223c.061-.06.139-.1.223-.114a.406.406 0 0 1 .426.178c1.455 2.325 4.703 3.638 8.128 3.265 3.745-.408 6.797-2.697 7.419-5.572a.387.387 0 0 1 .319-.32.43.43 0 0 1 .408.195c.378.666.614 1.404.692 2.165.03.283.041.568.036.852-.178 3.55-3.674 6.567-8.164 7.064a14.77 14.77 0 0 1-1.242.071Zm-7.72-6.673c0 .177 0 .355.018.532.017.178.088.515.142.746.834 3.088 4.578 5.075 8.731 4.614 4.135-.444 7.365-3.195 7.525-6.389a5.474 5.474 0 0 0-.036-.746 4.324 4.324 0 0 0-.266-1.153c-1.029 2.786-4.099 4.916-7.791 5.306-3.336.373-6.584-.781-8.323-2.91Z" fill="#212529"/><path d="M110.306 144.518c-3.301 0-6.283-1.437-7.667-3.798l-.071-.106.035-.142c.622-3.212 3.94-5.786 8.058-6.229 3.762-.409 7.329 1.082 8.891 3.726l.053.107v.142c-.621 3.23-3.94 5.785-8.057 6.229a9.376 9.376 0 0 1-1.242.071Zm-6.975-4.028c1.438 2.324 4.685 3.638 8.128 3.265 3.745-.408 6.78-2.68 7.401-5.537-1.438-2.343-4.686-3.638-8.128-3.266-3.745.409-6.78 2.662-7.401 5.538Z" fill="#212529"/><path d="M107.217 147.216a.354.354 0 0 1-.355-.302l-.355-3.283a.336.336 0 0 1 .302-.391.359.359 0 0 1 .35.186.353.353 0 0 1 .04.134l.373 3.265a.362.362 0 0 1-.079.262.35.35 0 0 1-.241.129h-.035ZM110.855 147.855a.358.358 0 0 1-.355-.32l-.408-3.318a.388.388 0 0 1 .319-.408.344.344 0 0 1 .139.013.339.339 0 0 1 .123.065.343.343 0 0 1 .129.241l.408 3.336a.344.344 0 0 1-.013.139.339.339 0 0 1-.065.123.343.343 0 0 1-.241.129h-.036ZM116.108 146.896a.353.353 0 0 1-.355-.284l-.692-3.638a.374.374 0 0 1 .284-.426.355.355 0 0 1 .408.284l.71 3.656a.355.355 0 0 1-.284.408h-.071ZM106.045 139.903a.353.353 0 0 1-.355-.319c-.017-.071-.071-.71.551-1.367.976-1.047 2.999-1.526 6.034-1.384 3.034.142 4.561.621 4.88 1.526.213.568-.195 1.118-.461 1.349a.354.354 0 0 1-.553-.298.353.353 0 0 1 .091-.234s.355-.32.249-.586c-.107-.266-.586-.905-4.242-1.047-3.656-.142-4.88.532-5.448 1.136-.568.603-.391.816-.391.834a.369.369 0 0 1-.319.39h-.036ZM74.793 80.7c-1.544 0-2.396-1.029-2.786-1.739-.426.497-1.296 1.1-2.946.923-2.307-.266-2.804-2.325-2.893-3.354-.656.266-1.97.71-3.07-.177-.834-.675-1.136-1.704-.834-2.858-.923.107-2.556-.106-3.55-1.189-.993-1.082-1.047-2.112-.674-3.691-.887.177-1.899.195-2.325-.373-.426-.568-.213-1.047.284-1.846l.603.373c-.46.746-.354.994-.319 1.047.036.053.799.302 1.917.036a.534.534 0 0 1 .479.142.568.568 0 0 1 .124.497c-.408 1.473-.248 2.59.426 3.336.675.746 2.45 1.065 3.07.958a.568.568 0 0 1 .568.178.621.621 0 0 1 .125.586c-.196.656-.267 1.579.55 2.253.816.675 1.863.302 2.573-.035l.071-.036a.445.445 0 0 1 .444.036.515.515 0 0 1 .23.39c.018.64.231 2.787 2.272 3.017 1.597.178 2.254-.479 2.502-.887a.462.462 0 0 1 .444-.23.426.426 0 0 1 .39.266c.249.532.959 1.757 2.485 1.668 1.526-.089 1.846-.959 1.988-1.491a.444.444 0 0 1 .337-.337.531.531 0 0 1 .479.142c.515.585 1.899 1.845 3.567.87 1.668-.977 1.278-1.81.923-2.503a.514.514 0 0 1 .071-.55.497.497 0 0 1 .532-.107c.817.32 2.698.621 3.213.018.514-.603-.178-2.165-.444-2.59a.568.568 0 0 1-.035-.48.532.532 0 0 1 .372-.302c.515-.106 2.2-.55 2.787-1.739.319-.674.248-1.508-.213-2.467a.567.567 0 0 1 .315-.794.586.586 0 0 1 .323-.022c.675.124 2.29.337 2.467-.586l.692.142c-.213 1.047-1.313 1.473-3.052 1.171.461 1.083.497 2.041.106 2.858-.638 1.295-2.183 1.863-3.017 2.076.426.781 1.065 2.254.249 3.195-.817.94-2.591.603-3.55.337.231.745.267 2.005-1.384 2.964-1.65.958-3.46-.036-4.188-.728-.266.639-.923 1.544-2.502 1.633h-.196Z" fill="#212529"/><path d="M51.083 61.959a5.413 5.413 0 0 1-2.396-.621l-.07-.036a.373.373 0 0 1-.25-.355.355.355 0 0 1 .356-.355.622.622 0 0 1 .301.107c2.307 1.189 4.437.426 6.159-2.219a.354.354 0 0 1 .592-.01.338.338 0 0 1-.007.383c-1.313 2.059-2.928 3.106-4.685 3.106Z" fill="#F8F9FA"/><path d="M109.329 104.658h-.053a.373.373 0 0 1-.302-.408c.053-.249 3.745-25.947-1.828-33.028-.035-.035-2.839-3.62-4.295-4.667-1.029-.746-.993-2.2-.39-3.124.603-.923 1.508-1.136 2.414-.603a.326.326 0 0 1 .105.089.337.337 0 0 1 .019.39.355.355 0 0 1-.479.124c-.799-.461-1.296.107-1.473.373-.426.674-.444 1.704.213 2.165 1.544 1.118 4.33 4.668 4.436 4.81 5.768 7.33 2.148 32.512 1.988 33.577a.354.354 0 0 1-.355.302Z" fill="#212529"/></svg>